<svg version="1.1" id="레이어_1" xmlns="http://www.w3.org/2000/svg" xmlns:xlink="http://www.w3.org/1999/xlink" x="0px" y="0px" viewBox="0 0 56.7 76.6" style="enable-background:new 0 0 56.7 76.6;" xml:space="preserve">
<style type="text/css">
	.st0{fill:#004CA0;}
	.st1{fill:#EE7200;}
	.st2{fill:#00A048;}
</style>
<g>
	<path class="st0" d="M30.4,24.9c0.8,0.2,1.6,0.4,2.4,0.7c7.5,2.5,13.6,9.8,13.7,17.8c0.1,6.5-3.4,13.2-9.1,16.4
		c-7.5,4.2-17.7,5.2-23.8-2c-4.5-5.4-3-15,3.7-18c0.1,0,0.2-0.1,0.3-0.1c1.8-0.7,3.9-0.9,5.8-0.5c2.5,0.5,4.8,1.8,6.3,3.8
		c2.5,3.3,2.5,7.5,0.2,10.9c-1.2,1.9-3.2,2.8-4,3.2c-1.4,0.5-3.6,1-4,0.9c0.4,0.1,1.1,0.1,1.5,0.1c2.4,0,4.9-0.4,7.1-1.4
		c0.4-0.2,1-0.5,1.3-0.7c3.3-1.9,6.1-4.9,6.8-8.8c0.7-3.8-0.5-7.8-2.6-10.9c-2.5-3.7-6.4-6.4-10.7-7.5c-5.7-1.4-12.1-0.2-16.7,3.5
		c-4.7,3.7-7.6,9.4-8.3,15.2c-1.1,9,3.2,18.1,10.5,23.4c3.7,2.7,8.1,4.5,12.6,5.3c9,1.6,18.5-1,25.3-7.2c3.2-2.9,5.8-6.6,7.1-10.7
		c1.3-4.3,1.5-9,0.4-13.4c-2-8.4-8.6-15.2-16.6-18.3c-1-0.4-2.1-0.8-3.2-1c-1.8-0.5-5.1-1-5.9-1c-1.5-0.2-2.8,0-2.8,0
		C29.5,24.6,30.3,24.8,30.4,24.9z"></path>
	<path class="st1" d="M37.9,14.9c-3.5,5.3-9,7.6-12.3,5.1c-3.2-2.4-3-8.7,0.6-14c3.5-5.3,9-7.6,12.3-5.1
		C41.7,3.4,41.5,9.7,37.9,14.9z"></path>
	<path class="st2" d="M7.9,26.3c0.3-0.1,0.5-0.2,0.8-0.3c0.6-0.2,1.1-0.4,1.7-0.6c1.8-0.6,3.7-1.1,5.6-1.4c1.3-0.2,2.6-0.3,3.9-0.4
		c1.5-0.2,4.6,0.1,4.9,0.2c-1.3-2.2-4-3.9-4.9-4.2c-2.2-0.9-4.9-1-7.1,0.1c-1.9,1.1-3,2.3-3.4,2.7c-1.5,1.5-2.8,4.1-2.8,4.3
		C7,26.6,7.4,26.4,7.9,26.3z"></path>
</g>
</svg>